<?xml version="1.0" standalone="no"?>
<!DOCTYPE svg PUBLIC "-//W3C//DTD SVG 20010904//EN"
 "http://www.w3.org/TR/2001/REC-SVG-20010904/DTD/svg10.dtd">
<svg version="1.0" xmlns="http://www.w3.org/2000/svg"
 width="512.000000pt" height="512.000000pt" viewBox="0 0 512.000000 512.000000"
 preserveAspectRatio="xMidYMid meet">

<g transform="translate(0.000000,512.000000) scale(0.100000,-0.100000)"
fill="#000000" stroke="none">
<path d="M2405 5110 c-903 -52 -1720 -593 -2129 -1410 -187 -374 -269 -728
-269 -1165 0 -214 12 -322 59 -533 150 -681 591 -1285 1198 -1645 551 -326
1221 -431 1856 -291 850 187 1567 827 1854 1653 187 538 188 1124 3 1667 -142
415 -392 791 -717 1078 -519 459 -1170 685 -1855 646z m366 -420 c488 -50 930
-255 1278 -594 191 -187 321 -367 436 -601 350 -715 267 -1575 -213 -2222 -84
-113 -312 -340 -424 -424 -847 -629 -2014 -559 -2766 166 -57 55 -132 133
-166 175 -652 784 -662 1911 -25 2711 89 111 293 308 398 383 444 317 959 458
1482 406z"/>
<path d="M2517 4488 c-28 -22 -37 -66 -37 -184 0 -132 14 -180 54 -190 44 -11
76 4 92 41 17 42 19 247 3 294 -17 48 -73 68 -112 39z"/>
<path d="M1362 3687 c-43 -13 -89 -67 -98 -113 -4 -20 -1 -53 5 -75 13 -42 -3
-27 704 -658 239 -214 327 -298 327 -314 1 -34 38 -108 73 -146 148 -156 421
-67 445 146 4 39 20 58 273 317 148 151 274 287 279 301 37 96 -39 205 -143
205 -21 0 -48 -5 -60 -11 -12 -6 -137 -126 -278 -266 l-256 -255 -84 -2 -84
-3 -478 426 c-263 234 -494 434 -515 443 -42 20 -62 21 -110 5z"/>
<path d="M663 2625 c-59 -25 -58 -106 2 -131 47 -19 253 -19 300 0 61 26 61
106 0 132 -46 19 -257 19 -302 -1z"/>
<path d="M4153 2625 c-59 -25 -58 -106 2 -131 41 -17 249 -20 291 -4 72 28 73
114 3 139 -47 16 -257 13 -296 -4z"/>
<path d="M2517 998 c-9 -7 -21 -26 -27 -41 -13 -37 -13 -246 1 -286 25 -70
111 -69 139 3 13 36 13 245 -1 285 -17 48 -73 68 -112 39z"/>
</g>
</svg>
